<?xml version="1.0" encoding="utf-8"?>
<!-- Generator: Adobe Illustrator 18.1.1, SVG Export Plug-In . SVG Version: 6.00 Build 0)  -->
<!DOCTYPE svg PUBLIC "-//W3C//DTD SVG 1.1//EN" "http://www.w3.org/Graphics/SVG/1.1/DTD/svg11.dtd">
<svg version="1.1" id="Layer_1" xmlns="http://www.w3.org/2000/svg" xmlns:xlink="http://www.w3.org/1999/xlink" x="0px" y="0px"
	 width="537.7px" height="132.7px" viewBox="0 0 537.7 132.7" enable-background="new 0 0 537.7 132.7" xml:space="preserve">
<g>
	<path fill="#FFFFFF" d="M155.3,39.4c0-6.2,4-10,14-10.6c3,0,12.4-1.3,12.6,3.6c0,1.7-1.9,2.2-3.3,2.3c-3.6-0.1-15.8-1.6-15.8,5v1
		c0.5,7.9,1.1,17.6,1.9,24.6c1.8,0.2,4.7,0.2,6.8,0.1c1.9-0.1,9-2.9,9,1.5c0,5.7-12.6,4.1-15.4,5.2c-1,13.3,2.2,26.5,2.3,41.3v0.5
		c0,5.2-5.6,4.1-6.3,0.5c-1.5-11.9-5.2-51.1-5.8-74.8V39.4z"/>
	<path fill="#FFFFFF" d="M215.5,27.1c21.8,2.4,18.6,54.2,17.4,70.4c-0.9,8.9-5.4,24.3-17.5,24.3c-21.5,0-22.5-36.7-22.5-50.9
		C192.8,55.4,193.9,27.1,215.5,27.1z M199.8,70.4c0,35.6,6.6,45.4,15.2,45.4c11.9,0,12-30.9,12-38.5v-0.5c0-9.4-2.6-43.4-14.1-43.4
		c-9.1,0-13,20.3-13,26.4C199.8,63.6,199.8,67,199.8,70.4z"/>
	<path fill="#FFFFFF" d="M268.6,27.1c21.8,2.4,18.6,54.2,17.4,70.4c-0.9,8.9-5.4,24.3-17.5,24.3c-21.5,0-22.5-36.7-22.5-50.9
		C246,55.4,247.1,27.1,268.6,27.1z M252.9,70.4c0,35.6,6.6,45.4,15.2,45.4c11.9,0,12-30.9,12-38.5v-0.5c0-9.4-2.6-43.4-14.1-43.4
		c-9.1,0-13,20.3-13,26.4C252.9,63.6,252.9,67,252.9,70.4z"/>
	<path fill="#FFFFFF" d="M299.1,100.6c0.1-10.5,0.1-59.1,0-69.4v-0.5c0-2.7,1-5.5,3.5-6.6h1.1c4.9,0,10,1.1,13.6,4.4
		c13,11.7,15.4,32.6,14.7,49.1c-1,23.5-6.4,45.8-26.5,48.3c-3.9,0.5-6.4-0.1-6.4-4.6V100.6z M306,77.2c0,10.8-0.2,29.3,0,41.7
		c15.1-2.3,19.2-26.4,19.2-39.8c0-9.6-0.6-47.2-17.5-47.2h-0.9C306.6,38.8,306,70.5,306,77.2z"/>
	<path fill="#FFFFFF" d="M345.1,102c4.9,1.5,0.2,12.2,6.3,15.7h0.7c6.8,0,8.8-9.4,8.8-14.3c0-6.7-0.5-13.9-3.3-20.2
		c-5.7-13.1-18-24.1-18-39.2c0-6.8,4.1-18.1,12.5-18.1c5.3,0,14.2,4.3,14.2,10.6c0,2.3-0.7,3.6-3.2,3.6c-4.7,0-3.3-7.3-10-7.3
		c-6.2,0-6.7,8.6-6.7,12.9c0,12.3,10.3,20.9,15.8,31.1c5,9.4,7.5,23,4.6,32.2c-1.9,6.3-7.4,15-14.8,15c-9,0-11.8-11.2-11.8-18.5
		C340.3,103.4,343.1,101.4,345.1,102z"/>
	<path fill="#FFFFFF" d="M387.4,86.9v34.3c0,5.5-6.7,3.4-6.9,1.8c0-4.4,0.2-24.6,0.2-28.8c0-9.5,0.9-58.5,1-67.8c1-1,2.1-1,3.4-1
		c1.7,0,2.7,1.1,3.8,2.6c0,11.7-1.1,28.3-1.1,40.7c0,1.7,0,9.5,0.1,11.1c1,1.1,1.8,0.9,2.9,0.9c4.6,0,9.2,0,13.7,0.2
		c1-13.7,1.5-37.5,1.1-52.9v-0.6c0-1.8,1.5-2.7,3.2-2.7c1.5,0,3.2,1.2,4,2.4c0,2.7-0.4,10.5-0.5,13c-1.7,55.8,1.3,84-2.7,84.1
		c-4.3,0.1-4.3-5.1-4.3-13.3c0-2.2-0.6-21.9-0.6-24.1H387.4z"/>
	<path fill="#FFFFFF" d="M434.1,98.8l-0.7,0.7l-2.1,13.7c-0.2,1.8-0.1,7.1-3.6,7.1c-1.6,0-2.7-3.2-2.7-4.4
		c12.6-88.2,12.8-88.4,12.8-88.4c0.6-2.3,1.5-5.7,4.5-5.7c1.3,0,3,0.6,3.8,1.8l1,2.6c7.1,27.8,10.3,56.4,13.6,85.1l0.7,7.9
		c0,0.1-0.1,0.1-0.1,0.2c-0.9,2.3-1.3,3.3-3.6,3.3h-0.4c-0.7,0-1.9,0-2.1-0.9l-3-23.1H434.1z M435.9,91.3l15.2,0.4l-8.1-56.8
		L435.9,91.3z"/>
	<path fill="#FFFFFF" d="M468.7,114.5c0-27.4,1-55,1.7-82.3c0.2-5.6,2.3-5.6,7.2-5.6h1.2c11.2,0,18.4,7.3,18.4,18v1.3
		c0,8.9-2.3,19.2-10.3,24.7c0.6,0.6,3.4,3.9,3.9,4.7c5.5,7.2,4.1,24.6,4.7,33c0,0.7,0.7,6.3,0.7,7.1v1c0,2.1-1.9,2.3-3.5,2.3h-0.1
		c-1.3,0-2.9,0-3.4-1.7c-0.1-4-1.2-22.6-1.5-26.7c-0.5-6-1.7-14.1-9.1-14.1h-1.9c-0.2,1.1-0.7,6-0.7,7.1c-0.1,1.1-0.7,28.1-0.9,38.4
		c0,2.3,0.4,4.9-2.7,4.9c-1.3,0-2.8-0.5-3.6-1.7V114.5z M478.2,67.4c8.6,0,11.9-15.9,11.9-21.5c0-5.7-2.7-13-9.6-13
		c-1.8,0-3,1.1-3,3.2c0.1,10.6-0.9,19.5-0.9,30.3C476.6,67.3,477.5,67.4,478.2,67.4z"/>
	<path fill="#FFFFFF" d="M509.3,36.6c0-2.2,2.1-4.3,4.3-4.3h19.2c0.7,0,3.2,1.8,3.3,2.4c0.1,0.2,0.1,0.4,0.1,0.6
		c0,2.4-3.3,3.5-5.2,3.5h-14.6l0.6,40.4l13.1-1.9h0.6c5.7,0,3.5,5.6-1.3,6.3l-12.2,1.8l-0.4,31.7c1.1,0.1,5.2,0.1,6.3,0.1
		c8.1,0,14.1-2.8,14.5,2.8c0.2,4.1-27,3.6-27,1.3L509.3,36.6z"/>
</g>
<g>
	<defs>
		<rect id="SVGID_1_" x="0" y="0" width="125.5" height="132.7"/>
	</defs>
	<clipPath id="SVGID_2_">
		<use xlink:href="#SVGID_1_"  overflow="visible"/>
	</clipPath>
</g>
<path fill="#FFFFFF" d="M95.9,85.9c-2.1,2.1-4.2,4.3-6.4,6.5c-2.3-2-4.9-3.8-7.4-5.6c-1.4-1-3.1,1.3-1.8,2.3
	c2.4,1.8,4.7,3.7,6.9,5.7c-2.8,2.9-5.7,5.8-8.8,8.5c-0.4-0.3-0.8-0.7-1.2-1c-2.5-2.2-5-4.5-7.5-6.7c0.6-0.5,1.2-1,1.8-1.4
	c1.1-0.8,0.1-2.6-1.1-1.9c-0.9,0.5-1.7,1.1-2.5,1.7c-2.5-2.3-5.1-4.5-7.6-6.8c-1.2-1-2.9,0.7-1.7,1.7c2.4,2.2,4.8,4.4,7.2,6.7
	c-3.3,2.5-6.4,5.2-9.5,7.9c-3.3-2.9-6.7-5.6-10.1-8.3c2.3-1.8,4.7-3.5,7.2-5.1c0.9-0.6,0.1-1.8-0.8-1.4c-3,1.3-5.7,3-8.2,5
	c-2.8-2.1-5.5-4.2-8.3-6.2c-0.2-0.2-0.4-0.4-0.7-0.5c-0.4-0.3-0.8-0.6-1.1-0.8c-0.8-0.6-1.8,0.7-1,1.3c0.1,0.1,0.1,0.1,0.2,0.2
	c-2.3,1.3-4.4,2.7-5.6,5.1c-0.6,1.2,1.1,2.2,1.8,1c1.3-2.3,3.6-3.4,5.9-4.4c2.3,1.9,4.6,3.9,6.8,6c-3,2.6-5.8,5.4-8.6,8.3
	c-1.1-1-2.3-2-3.4-3c-0.5-0.5-1.3,0.3-0.8,0.8c1,1.1,2,2.3,3.1,3.4c-0.2,0.2-0.5,0.5-0.7,0.7c-0.8,0.8,0.4,2,1.2,1.2
	c0.2-0.2,0.4-0.4,0.7-0.6c2.7,3,5.5,6,8.4,8.7c-1.2,0.8-2.4,1.5-3.6,2.2c-0.7,0.4-0.2,1.6,0.5,1.3c1.6-0.6,3.1-1.4,4.6-2.2
	c1.6,1.3,3.2,2.6,4.9,3.7c1,0.7,2.1-0.8,1.3-1.7c-1.2-1.2-2.4-2.4-3.7-3.5c3.2-2,6.2-4.3,9.1-6.8c2.2,2.1,4.5,4.2,6.8,6.3
	c-1.3,0.6-2.7,1.1-4.1,1.5c-0.9,0.3-0.5,1.6,0.4,1.4c1.8-0.3,3.6-0.9,5.4-1.5c2.9,2.5,6,4.9,9.1,7.1c1.3,0.9,2.6-1,1.6-2.1
	c-2.2-2.2-4.5-4.5-6.8-6.7c3.6-1.7,7.2-4,10.5-6.5c1.9,1.8,3.9,3.7,5.9,5.5c-0.4,0.5-0.9,1.1-1.2,1.7c-0.8,1.2,1.1,2.2,1.9,1.1
	c0.3-0.4,0.7-0.9,1.1-1.3c2,1.6,4.1,3.2,6.3,4.4c1.3,0.7,2.5-0.9,1.5-2c-1.6-1.8-3.5-3.5-5.3-5.1c2-1.9,4-3.8,5.5-6.2
	c0.7-1.2-1.1-2.6-1.9-1.5c-1.7,2.1-3.6,4.1-5.5,6.1c-1.9-1.6-3.8-3.1-5.7-4.7c3.1-2.6,6-5.4,8.8-8.3c1.7,1.6,3.3,3.2,4.9,4.9
	c1,1.1,3-0.4,2.1-1.6c-1.4-2.1-3-4-4.8-5.7c2.1-2.3,4-4.6,5.8-6.9C98.6,86.5,97,84.8,95.9,85.9L95.9,85.9z M44.7,113.1
	c-3.1-2.8-6.3-5.6-9.5-8.3C38,102,41,99.4,44,96.9c3.2,3,6.3,6.1,9.4,9.1C50.6,108.5,47.7,110.9,44.7,113.1L44.7,113.1z M66.1,112.3
	c-2.5-2.4-5.1-4.7-7.7-7c3.1-2.7,6.1-5.4,9.2-8c2.5,2.4,5,4.7,7.5,7.1c0.3,0.3,0.6,0.6,1,0.9C72.9,107.9,69.6,110.3,66.1,112.3
	L66.1,112.3z M66.1,112.3"/>
<path fill="#FFFFFF" d="M30.6,37.6c-1.7,2.8-3.9,6-3.9,9.4c0,1,1.5,1,1.6,0c0.2-3,2.6-5.8,3.8-8.6C32.4,37.5,31.1,36.7,30.6,37.6
	L30.6,37.6z M30.6,37.6"/>
<path fill="#FFFFFF" d="M37.1,42.2c-3.7,2.3-7,5.2-7,9.9c0,1.4,2.1,1.4,2.2,0c0.2-3.6,3.2-6.1,5.9-8.1
	C39.3,43.3,38.3,41.5,37.1,42.2L37.1,42.2z M37.1,42.2"/>
<path fill="#FFFFFF" d="M42.3,49c-1.9,1.5-4.2,2.6-6.3,3.7c-1,0.5-0.1,1.9,0.8,1.4c2.3-1.1,4.8-2.1,6.5-4C44.1,49.4,43,48.4,42.3,49
	L42.3,49z M42.3,49"/>
<path fill="#FFFFFF" d="M123.9,60.1c-0.1-0.2-0.2-0.3-0.3-0.4c0.6-0.9,0.3-2.4-0.9-2.9c-1.8-0.8-3.7-1.3-5.6-1.8
	c5.8-4.5,8.7-14.8,1.9-19.7c-0.9-0.6-6.2-2.7-6.1-3.7c0.2-1.8,0.2-4.4-0.7-6c-1.6-3.1-4.5-3.5-7.7-3.5c-1.7-8.3-8.5-13.9-17.4-9.5
	c-4.7,2.3-8.4-1.3-13.2,0.3c-3.7,1.2-4.6,5.8-5,9.2c0-1.5,0-3,0-4.6c0-0.9-0.6-1.5-1.4-1.8c-6.3-2.3-11.4-2.4-17.7,0
	c-0.7,0.3-1.4,0.9-1.3,1.8c0.7,5.8,1.2,11.7,1.7,17.6c-4.7-6.6-11.8-12.2-19-11c1.3-8.1-0.9-23.4-11.6-24C9-0.5,11.2,13.6,13.4,20.7
	C10.8,20.4,8,21,5.3,21.1c-1.2,0-1.9,1.3-1.3,2.3c3.7,7.2,9.9,10.4,17.4,8.3c-1.3,3-1.6,6.4-1.1,9.5c1.1,6.7,5.8,12,11.1,16
	c-6.8,0.3-13.6,0.9-20.1,2.2c-0.2-0.3-0.5-0.5-1-0.4C0.4,61-0.1,71.5,2.1,79.6c0.2,0.9,1.1,1.4,2,1.5c1.9,0.2,3.8,0.4,5.6,0.5
	c1.6,1.9,3.1,5.6,4,7.4c2.1,4,3.3,8.4,4.6,12.7c2.2,7.1,4.2,14,7.1,20.8c0.1,0.3,0.3,0.5,0.6,0.7c0.1,0.2,0.3,0.5,0.5,0.6
	c19.5,11.5,50.7,9.2,72,4.1c0.4-0.1,0.6-0.2,0.9-0.4c1.2,0.4,2.8,0,3.4-1.6c5.6-14.2,8.4-29,12.2-43.7
	C124.1,79.7,129.8,73,123.9,60.1L123.9,60.1z M68.8,23c0.3,0.6,1.3,0.5,1.5-0.2c1.6-5.9,6.9-8.7,12.6-5.3c0.5,0.3,1.1,0.3,1.5,0
	c7.1-4.4,16.2-4.2,16.6,6.4c0,1,0.8,1.9,1.9,1.9c5.4,0.1,6.2,3.6,5.7,8.4c-0.1,0.8,0.7,1.8,1.4,1.9c11.8,2,8.9,10.7,3.2,17.5
	c-0.2,0.2-0.3,0.4-0.3,0.6c-2.5-0.4-5.1-0.7-7.7-0.8c4.2-3.2,6.9-8.7,4.6-13.9c-2.4-5.4-7.6-6.1-12.3-4.1c-1.1-3.3-2.7-6.3-6.3-7.5
	c-3.1-1.1-6.1,1.6-8.3,4.2c-1.4-4.1-4.3-8.6-9-6.2c-2.5,1.2-4.3,3.3-5.3,5.8C68.7,28.7,68.7,25.9,68.8,23L68.8,23z M68.4,41.3
	c0.3-0.1,0.5-0.3,0.5-0.7c0.1-3.7,1-7.2,3.4-10.2c4.5-5.6,7.7,1.1,8.5,5.4c0.2,1.1,1.9,1.6,2.6,0.7c1.5-1.9,2.8-3.5,4.9-4.9
	c4.1-2.7,5.8,5.1,6.3,6.8c0.3,1.2,1.7,1.7,2.8,1.1c3.8-2.1,7.8-2.5,9.2,2.3c1.2,4.4-2.8,7.8-5.9,9.8c-0.6,0.4-0.8,0.9-0.9,1.4
	c-10.8,0.2-21.9,2-31.6,3c-0.1,0-0.1,0-0.2,0.1C68.1,51.3,68.3,46.3,68.4,41.3L68.4,41.3z M53.9,18c15.8-6.1,10.8,15,10.5,23.2
	c-0.4,10-0.7,20-0.7,30.1c-1.9-0.6-2.2-0.5-5.7-0.7c-0.7,0-1.3,0.2-1.6,0.7c-0.1-8.3-0.5-16.6-1-24.9C55,42.7,50,19.5,53.9,18
	L53.9,18z M22.4,29.8c-6.1,1-11-1.1-14.4-5.9c2.4-0.3,4.9-0.7,7.3,0.1c0.9,0.3,2.1-0.7,1.7-1.7c-1.7-4.2-6.1-18.8,2.6-19.1
	c8.9-0.3,8.6,15.4,8.7,20.7c0,0.3,0.1,0.6,0.3,0.8c-1.3,0.5-2.6,1.3-3.9,2.3C23.8,27.8,23,28.8,22.4,29.8L22.4,29.8z M27,30.1
	c3-3,7.5-3,11.1-1.4c6.2,2.8,9.5,9,12.8,14.6c0.4,4.4,0.8,8.9,1.3,13.3c-5.7,0.2-11.6,0.2-17.5,0.4c0-0.2-0.1-0.4-0.3-0.6
	C27.3,50.7,18.6,38.5,27,30.1L27,30.1z M98.4,122.9c-0.4-0.2-0.9-0.2-1.4-0.2c-22.9,3.2-45.2,4-67.9-0.8c0.1-0.3,0.1-0.6-0.1-1
	c-3.5-8.5-4.7-17.9-8-26.5c-1.3-3.3-2.7-6.8-4.9-9.6c-1.2-1.6-2.3-2.3-3.4-3c29.1,1.9,58.2-1.1,87.3,1.5c4.2,0.4,8.5,0.3,12.3-0.5
	C106.8,95.9,102.7,109.4,98.4,122.9L98.4,122.9z M108.1,79c-8.1,0.3-16.3-1.3-24.3-2c-14-1.2-28.5,1-42.5,1.2
	c-8.2,0.1-16.4,0-24.6-0.3C15,77.9,6,78.5,5.3,76C3.8,70.7,5.4,66.1,9,62.5c0.1,0,0.1,0,0.2,0c14.2-1.1,29.6,1.8,43.4-1.8
	c0.5,5,1.1,9.9,1.8,14.8c0.2,1.1,1.9,0.8,1.9-0.3c0-0.4,0-0.8,0-1.2c0.3,0.4,0.9,0.8,1.6,0.8c2.4,0.4,4.8,0.7,7.2,1.1
	c1.3,0.3,2.5-0.6,2.5-1.9c0-5.3,0.2-10.5,0.3-15.8c0.1,0,0.2,0.1,0.3,0.1c17.3,1.5,34.9,1.4,52.2,2c-0.2,0.4-0.3,0.9-0.2,1.3
	C122.2,73,120.3,78.5,108.1,79L108.1,79z M108.1,79"/>
</svg>
